<svg xmlns="http://www.w3.org/2000/svg" width="172.511" height="42.923" viewBox="0 0 172.511 42.923">
  <g id="Group_139" data-name="Group 139" transform="translate(-39.146 -378.423)">
    <path id="Path_257" data-name="Path 257" d="M759.144,397.857,753.967,384.8l4.241-1.428,3.644,13.66Z" transform="translate(-581.809 -4.027)" fill="#fff" fill-rule="evenodd"/>
    <path id="Path_258" data-name="Path 258" d="M887.8,541.842,875.514,536.2l1.082-2.613,13.729,4.459Z" transform="translate(-680.739 -126.294)" fill="#fff" fill-rule="evenodd"/>
    <path id="Path_259" data-name="Path 259" d="M878.948,491.541l16.187-3.274.055,4.452-15.875,1.626Z" transform="translate(-683.534 -89.404)" fill="#fff" fill-rule="evenodd"/>
    <path id="Path_260" data-name="Path 260" d="M864.945,437.219l13.625-9.75,2.843,3.766-14.837,8.094Z" transform="translate(-672.137 -39.92)" fill="#fff" fill-rule="evenodd"/>
    <path id="Path_261" data-name="Path 261" d="M810.485,392.863l1.038-14.44,4.377.02-2.6,14.73Z" transform="translate(-627.811)" fill="#fff" fill-rule="evenodd"/>
    <path id="Path_262" data-name="Path 262" d="M839.285,402.466l7.869-13.77,4.012,1.789-9.273,13.392Z" transform="translate(-651.251 -8.362)" fill="#fff" fill-rule="evenodd"/>
    <path id="Path_263" data-name="Path 263" d="M747.511,493.519a12.13,12.13,0,0,1-.81-8.546,12.58,12.58,0,0,1,4.61-6.608,11.813,11.813,0,0,1,9.672-2.044,7.494,7.494,0,0,1,5.755,5.707,9.151,9.151,0,0,1-2.32,8.241,13.079,13.079,0,0,1-8.494,3.54l.9-2.648s2.6-.026,5.168-2.969a5.023,5.023,0,0,0,.009-6.665,5.585,5.585,0,0,0-4.929-1.312,8.14,8.14,0,0,0-4.833,2.358,8.6,8.6,0,0,0-2.621,4.813,7.225,7.225,0,0,0,1.209,5.8c1.926,2.2,4.4,2.883,7.606,2.2l-.75,2.362C752.117,498.921,748.967,496.007,747.511,493.519Z" transform="translate(-575.557 -79.415)" fill="#fff" fill-rule="evenodd"/>
    <path id="Path_264" data-name="Path 264" d="M43.452,464.554c.427-.459.863-.938,1.316-1.437s.888-.991,1.314-1.479.822-.954,1.2-1.394.7-.824.969-1.151H53.37q-1.535,1.76-2.994,3.362t-3.195,3.3a20.349,20.349,0,0,1,1.793,1.868c.616.725,1.215,1.472,1.791,2.243s1.108,1.545,1.591,2.317.883,1.476,1.215,2.113H48.619c-.31-.5-.66-1.057-1.056-1.666s-.813-1.217-1.253-1.826-.91-1.191-1.4-1.752a11.321,11.321,0,0,0-1.457-1.42V474.3H39.146V452.562l4.306-.695Z" transform="translate(0 -59.778)" fill="#fff" fill-rule="evenodd"/>
    <path id="Path_265" data-name="Path 265" d="M132.692,475.567h-4.308v-15.2h4.308v15.2Zm.4-19.6a2.369,2.369,0,0,1-.767,1.864,2.743,2.743,0,0,1-3.613,0,2.651,2.651,0,0,1,0-3.729,2.743,2.743,0,0,1,3.613,0A2.37,2.37,0,0,1,133.1,455.972Z" transform="translate(-72.279 -61.048)" fill="#fff" fill-rule="evenodd"/>
    <path id="Path_266" data-name="Path 266" d="M215.912,475.567h-4.306v-15.2h4.306v15.2Zm.4-19.6a2.366,2.366,0,0,1-.762,1.864,2.743,2.743,0,0,1-3.613,0,2.651,2.651,0,0,1,0-3.729,2.743,2.743,0,0,1,3.613,0A2.365,2.365,0,0,1,216.314,455.972Z" transform="translate(-140.016 -61.048)" fill="#fff" fill-rule="evenodd"/>
    <path id="Path_267" data-name="Path 267" d="M264.371,496.321a5.941,5.941,0,0,0-.534-2.949A1.98,1.98,0,0,0,262,492.5a7.409,7.409,0,0,0-.837.046c-.285.026-.567.059-.835.1v11.732h-4.306V489.7c.365-.1.79-.2,1.284-.305s1.009-.2,1.558-.29,1.114-.154,1.692-.2,1.145-.075,1.706-.075a7.166,7.166,0,0,1,2.674.422,5.921,5.921,0,0,1,1.693,1,8.018,8.018,0,0,1,4.333-1.42,7.592,7.592,0,0,1,2.993.508,4.537,4.537,0,0,1,1.864,1.431,5.376,5.376,0,0,1,.954,2.2,14.126,14.126,0,0,1,.259,2.832v8.586h-4.307v-8.063a5.939,5.939,0,0,0-.535-2.949,1.973,1.973,0,0,0-1.835-.868,3.923,3.923,0,0,0-.967.174,3.7,3.7,0,0,0-1.026.435,6.8,6.8,0,0,1,.259,1.4c.039.494.057,1.017.057,1.575v8.3h-4.308Z" transform="translate(-176.52 -89.864)" fill="#fff" fill-rule="evenodd"/>
    <path id="Path_268" data-name="Path 268" d="M392.486,501.127c.422,0,.828-.009,1.211-.026s.694-.05.925-.088v-3.268c-.172-.036-.433-.077-.78-.114a8.3,8.3,0,0,0-2.092.013,3,3,0,0,0-.942.275,1.6,1.6,0,0,0-.635.549,1.544,1.544,0,0,0-.231.866,1.474,1.474,0,0,0,.679,1.4,3.761,3.761,0,0,0,1.866.389Zm-.349-12.6a10.012,10.012,0,0,1,3.182.434,4.953,4.953,0,0,1,2.035,1.246,4.6,4.6,0,0,1,1.086,1.965,9.714,9.714,0,0,1,.317,2.571V503.7q-.925.2-2.572.477a24.877,24.877,0,0,1-3.99.275,12.607,12.607,0,0,1-2.672-.262,5.808,5.808,0,0,1-2.068-.853,3.894,3.894,0,0,1-1.329-1.545,5.361,5.361,0,0,1-.462-2.34,4.463,4.463,0,0,1,.534-2.257,4.117,4.117,0,0,1,1.433-1.474,6.47,6.47,0,0,1,2.051-.794,11.489,11.489,0,0,1,2.4-.244,13.579,13.579,0,0,1,1.488.07,6.843,6.843,0,0,1,1.055.187v-.4a2.383,2.383,0,0,0-.664-1.76,3.2,3.2,0,0,0-2.312-.669,14.831,14.831,0,0,0-2.169.158,9.489,9.489,0,0,0-1.848.448l-.548-3.468c.249-.077.562-.158.938-.246s.784-.16,1.228-.23.91-.123,1.4-.174S391.636,488.524,392.137,488.524Z" transform="translate(-282.038 -89.614)" fill="#fff" fill-rule="evenodd"/>
    <path id="Path_269" data-name="Path 269" d="M474.607,489.7a24.657,24.657,0,0,1,2.832-.594,23.4,23.4,0,0,1,3.644-.275,8.779,8.779,0,0,1,3.222.51,4.789,4.789,0,0,1,2.039,1.428,5.55,5.55,0,0,1,1.068,2.2,11.747,11.747,0,0,1,.319,2.832v8.586h-4.3v-8.063a5.812,5.812,0,0,0-.55-2.947,2.238,2.238,0,0,0-2.055-.87c-.3,0-.635.013-.98.046s-.66.059-.928.1v11.732h-4.307Z" transform="translate(-354.432 -89.864)" fill="#fff" fill-rule="evenodd"/>
    <path id="Path_270" data-name="Path 270" d="M568.924,455.972a2.351,2.351,0,0,1-.769,1.861,2.74,2.74,0,0,1-3.611,0,2.654,2.654,0,0,1,0-3.727,2.74,2.74,0,0,1,3.611,0A2.355,2.355,0,0,1,568.924,455.972Z" transform="translate(-427.011 -61.048)" fill="#fff" fill-rule="evenodd"/>
    <path id="Path_271" data-name="Path 271" d="M612.9,501.127c.422,0,.827-.009,1.21-.026s.695-.05.925-.088v-3.268c-.174-.036-.434-.077-.781-.114a8.394,8.394,0,0,0-.954-.06,8.485,8.485,0,0,0-1.141.073,3,3,0,0,0-.941.275,1.606,1.606,0,0,0-.635.549,1.561,1.561,0,0,0-.231.866,1.475,1.475,0,0,0,.679,1.4,3.763,3.763,0,0,0,1.866.389Zm-.35-12.6a9.981,9.981,0,0,1,3.179.434,4.939,4.939,0,0,1,2.037,1.246,4.554,4.554,0,0,1,1.086,1.965,9.712,9.712,0,0,1,.317,2.571V503.7q-.928.2-2.573.477a24.854,24.854,0,0,1-3.988.275,12.631,12.631,0,0,1-2.675-.262,5.773,5.773,0,0,1-2.066-.853,3.875,3.875,0,0,1-1.332-1.545,5.354,5.354,0,0,1-.462-2.34,4.466,4.466,0,0,1,.534-2.257,4.134,4.134,0,0,1,1.43-1.474,6.479,6.479,0,0,1,2.052-.794,11.5,11.5,0,0,1,2.4-.244,13.568,13.568,0,0,1,1.488.07,6.79,6.79,0,0,1,1.054.187v-.4a2.389,2.389,0,0,0-.663-1.76,3.212,3.212,0,0,0-2.314-.669,14.816,14.816,0,0,0-2.169.158,9.578,9.578,0,0,0-1.851.448l-.549-3.468c.251-.077.565-.158.941-.246s.785-.16,1.228-.23.91-.123,1.4-.174S612.053,488.524,612.555,488.524Z" transform="translate(-461.441 -89.614)" fill="#fff" fill-rule="evenodd"/>
    <path id="Path_272" data-name="Path 272" d="M703.055,493.132c-.388-.1-.84-.2-1.36-.3a7.955,7.955,0,0,0-2.646-.088,5.929,5.929,0,0,0-.851.158V504.52h-4.31V490.126a25.445,25.445,0,0,1,2.731-.767,15.834,15.834,0,0,1,3.514-.36c.231,0,.51.015.838.044s.655.068.984.115.653.107.98.171a4.925,4.925,0,0,1,.842.248Z" transform="translate(-532.91 -90)" fill="#fff" fill-rule="evenodd"/>
    <path id="Path_273" data-name="Path 273" d="M175.894,474.3v-22.43l-4.308.695V474.3Z" transform="translate(-107.796 -59.778)" fill="#fff" fill-rule="evenodd"/>
    <path id="Path_274" data-name="Path 274" d="M551.794,509.512a6.113,6.113,0,0,0,1.321-1,4.66,4.66,0,0,0,1.356-3.437V490.523h4.276v14.193a8.42,8.42,0,0,1-.741,3.734,8.877,8.877,0,0,1-1.8,2.519,9.328,9.328,0,0,1-2.235,1.618Z" transform="translate(-417.256 -91.241)" fill="#fff" fill-rule="evenodd"/>
  </g>
</svg>
