<svg width="52" height="52" viewBox="0 0 52 52" fill="none" xmlns="http://www.w3.org/2000/svg">
<path fill-rule="evenodd" clip-rule="evenodd" d="M10.959 26C10.9423 26 10.9258 26.0033 10.9104 26.0098C10.895 26.0162 10.8811 26.0257 10.8694 26.0376C10.8577 26.0495 10.8485 26.0636 10.8423 26.0791C10.8361 26.0946 10.833 26.1112 10.8333 26.1278V41.1667C10.8333 43.2098 10.8333 44.2303 11.4682 44.8652C12.103 45.5 13.1235 45.5 15.1667 45.5H36.8333C38.8765 45.5 39.897 45.5 40.5318 44.8652C41.1667 44.2303 41.1667 43.2098 41.1667 41.1667V26.1278C41.1667 26.0943 41.1535 26.0621 41.13 26.0382C41.1065 26.0143 41.0745 26.0006 41.041 26H38.272C37.9665 26 37.583 26 37.2428 25.9632C36.7018 25.9129 36.1823 25.7265 35.7327 25.4215C35.667 25.3761 35.5893 25.3513 35.5094 25.3501C35.4296 25.3489 35.3512 25.3715 35.2842 25.415C34.8479 25.6936 34.3549 25.8712 33.8412 25.935C33.3602 26 32.7925 26 32.305 26H28.9185C28.5328 26 28.067 26 27.6597 25.948L26.2622 25.7703C25.3045 25.6533 26.6955 25.6533 25.7378 25.7703L24.3403 25.948C23.933 26 23.4672 26 23.0815 26H19.695C19.2075 26 18.6398 26 18.1588 25.935C17.6451 25.8712 17.1522 25.6935 16.7158 25.415C16.6488 25.3715 16.5704 25.3489 16.4906 25.3501C16.4107 25.3513 16.333 25.3761 16.2673 25.4215C15.7257 25.7963 15.1753 25.9155 14.7572 25.9632C14.415 25.9939 14.0715 26.0062 13.728 26H13.6652H10.959ZM12.857 23.8333C11.7802 23.8333 10.8203 22.8692 11.3143 21.9137C11.7932 20.982 12.6837 20.345 14.4625 19.0753L20.9625 14.4322C23.3957 12.6945 24.6133 11.8257 26 11.8257C27.3867 11.8257 28.6043 12.6923 31.0375 14.4322L37.5375 19.0753C39.3163 20.345 40.2068 20.982 40.6857 21.9137C41.1775 22.8692 40.2198 23.8333 39.143 23.8333H38.3348C37.609 23.8333 37.245 23.8333 36.9677 23.6383C36.815 23.5247 36.6947 23.3731 36.6188 23.1985C36.5235 23.0057 36.4303 22.7565 36.3068 22.4272L35.8518 21.2139L34.9115 18.7092L34.8747 18.6117C34.398 17.3442 34.1618 16.7093 33.9755 16.7548C33.787 16.8003 33.8715 17.4742 34.0405 18.8175L34.0513 18.9194L34.3633 21.398C34.4673 22.2344 34.5323 22.763 34.4305 23.1313C34.3959 23.2551 34.3345 23.3698 34.2507 23.4672C33.9278 23.8334 33.3558 23.8333 32.214 23.8333H28.9965C28.0865 23.8333 27.6315 23.8333 27.3238 23.5625C27.2466 23.4939 27.1827 23.4117 27.1353 23.3198C27.001 23.0685 26.9447 22.7045 26.8732 22.1498L26.845 21.9353L26.455 18.8153L26.4442 18.7157L26.429 18.6073C26.2708 17.3334 26.1907 16.6963 26 16.6963C25.8093 16.6963 25.7292 17.3334 25.571 18.6073L25.5558 18.7157L25.545 18.8132L25.155 21.9353L25.1268 22.152C25.0575 22.7045 24.999 23.0685 24.8668 23.322C24.8184 23.4125 24.7538 23.4932 24.6762 23.5603C24.3707 23.8333 23.9157 23.8333 23.0035 23.8333H19.7882C18.6442 23.8333 18.0722 23.8333 17.7493 23.465C17.6638 23.3696 17.6021 23.2553 17.5695 23.1313C17.4677 22.763 17.5327 22.2344 17.6367 21.398L17.9465 18.9215L17.9595 18.8175C18.1285 17.4742 18.213 16.8025 18.0245 16.7548C17.8382 16.7093 17.5998 17.3442 17.1253 18.6117L17.0885 18.707V18.7092L16.1503 21.2117L15.6953 22.4272C15.5697 22.7565 15.4787 23.0057 15.3812 23.1985C15.3061 23.3736 15.1866 23.5259 15.0345 23.6405C14.7528 23.8333 14.391 23.8333 13.6652 23.8333H12.857Z" fill="#828282"/>
<path d="M10.0122 9.7825C10.4065 8.20517 10.6037 7.41867 11.1908 6.95933C11.7802 6.5 12.5927 6.5 14.2177 6.5H37.7823C39.4073 6.5 40.2198 6.5 40.8092 6.95933C41.3942 7.41867 41.5935 8.20517 41.9878 9.7825L45.1642 22.4878C45.318 23.1075 45.396 23.4173 45.2335 23.6253C45.071 23.8333 44.7503 23.8333 44.1133 23.8333H38.4453C37.6697 23.8333 37.2797 23.8333 36.9937 23.6188C36.7055 23.4043 36.5928 23.0338 36.3697 22.2885L34.8768 17.316C34.4088 15.7517 34.1748 14.9695 33.9798 15.0063C33.787 15.0453 33.8693 15.8578 34.0318 17.4828L34.4283 21.45C34.5388 22.5637 34.5952 23.1205 34.2723 23.4758C33.9495 23.8333 33.3905 23.8333 32.2725 23.8333H29.0442C28.1125 23.8333 27.6467 23.8333 27.3368 23.5517C27.027 23.2743 26.9815 22.8107 26.8883 21.8833L26.4312 17.3117C26.2752 15.7452 26.1972 14.9608 26 14.9608C25.805 14.9608 25.7248 15.7452 25.5688 17.3117L25.1117 21.8833C25.0185 22.8107 24.973 23.2743 24.6632 23.5517C24.3533 23.8333 23.8875 23.8333 22.9558 23.8333H19.7275C18.6095 23.8333 18.0505 23.8333 17.7277 23.4758C17.4027 23.1205 17.4612 22.5658 17.5717 21.45L17.9682 17.4828C18.1307 15.8578 18.213 15.0453 18.018 15.0063C17.8252 14.9695 17.5912 15.7517 17.1232 17.316L15.6282 22.2885C15.4072 23.0338 15.2945 23.4043 15.0063 23.6188C14.7203 23.8333 14.3303 23.8333 13.5547 23.8333H7.88668C7.24968 23.8333 6.92901 23.8333 6.76651 23.6253C6.60401 23.4173 6.67984 23.1053 6.83584 22.4878L10.0122 9.7825ZM27.0833 32.5H24.9167C23.7674 32.5 22.6652 32.9565 21.8525 33.7692C21.0399 34.5819 20.5833 35.6841 20.5833 36.8333V45.175C20.5833 45.3548 20.7285 45.5 20.9083 45.5H31.0917C31.1779 45.5 31.2605 45.4658 31.3215 45.4048C31.3824 45.3439 31.4167 45.2612 31.4167 45.175V36.8333C31.4167 35.6841 30.9601 34.5819 30.1475 33.7692C29.3348 32.9565 28.2326 32.5 27.0833 32.5Z" fill="#DC042A"/>
</svg>
