<svg width="52" height="52" viewBox="0 0 52 52" fill="none" xmlns="http://www.w3.org/2000/svg">
<path d="M47.7338 23.5623L43.1058 15.8858C42.7665 15.3289 42.2903 14.8682 41.7225 14.5473C41.1548 14.2265 40.5144 14.0562 39.8623 14.0528H36.2288V13.5133C36.2289 12.7342 36.075 11.9627 35.7761 11.2433C35.4771 10.5238 35.039 9.87044 34.4868 9.32079C33.3709 8.20813 31.8594 7.58326 30.2835 7.58312H8.65367C7.47656 7.57591 6.32403 7.91982 5.34336 8.5709C4.36269 9.22198 3.5984 10.1507 3.14817 11.2383C2.85115 11.9597 2.70089 12.7331 2.70617 13.5133V32.9223C2.70693 33.834 3.03822 34.7144 3.63862 35.4005C4.23902 36.0866 5.0678 36.5317 5.97133 36.6533C5.9605 36.8483 5.9605 37.0433 5.97133 37.2361C5.96326 38.1551 6.14104 39.0663 6.49402 39.9148C6.84699 40.7634 7.36786 41.5318 8.02533 42.174C8.67035 42.845 9.44229 43.3811 10.2963 43.7512C11.1503 44.1213 12.0693 44.3179 13 44.3298C14.8576 44.3132 16.6348 43.5696 17.9508 42.2585C19.2658 40.9496 20.0129 39.1759 20.0308 37.3206C20.0416 37.1417 20.0416 36.9622 20.0308 36.7833H31.967C31.9562 36.9622 31.9562 37.1417 31.967 37.3206C31.9585 38.24 32.1361 39.1516 32.4891 40.0006C32.8421 40.8495 33.3632 41.6183 34.021 42.2606C34.6665 42.9322 35.4391 43.4687 36.2939 43.8388C37.1487 44.209 38.0686 44.4053 39 44.4165C40.8577 44.4001 42.635 43.6565 43.9508 42.3451C45.265 41.0359 46.0113 39.2622 46.0287 37.4073C46.0395 37.2276 46.0395 37.0475 46.0287 36.8678H47.6667C48.094 36.8617 48.5023 36.6896 48.8051 36.388C49.108 36.0864 49.2817 35.6788 49.2895 35.2515V29.0201C49.2895 27.0918 48.75 25.2025 47.7338 23.5623ZM16.7635 37.234C16.7656 37.7295 16.6671 38.2202 16.4738 38.6765C16.2805 39.1327 15.9965 39.545 15.639 39.8881C14.9182 40.573 13.9618 40.9549 12.9675 40.9549C11.9732 40.9549 11.0168 40.573 10.296 39.8881C9.94485 39.5374 9.66676 39.1205 9.47783 38.6615C9.2889 38.2026 9.19288 37.7108 9.19533 37.2145C9.18573 36.702 9.2893 36.1938 9.49867 35.726C9.78467 35.0478 10.2765 34.4758 10.9027 34.0858C11.5431 33.6625 12.2975 33.4448 13.065 33.4618C13.7973 33.4618 14.5123 33.6785 15.119 34.0858C15.7408 34.4823 16.2305 35.0521 16.5273 35.726C16.7397 36.1918 16.8523 36.701 16.8502 37.2145L16.7635 37.234ZM23.7922 26.4526H12.9805C12.4081 26.4521 11.8592 26.225 11.4537 25.8211C11.0481 25.4172 10.8189 24.8692 10.816 24.2968C10.8154 24.0129 10.871 23.7316 10.9795 23.4693C11.088 23.2069 11.2474 22.9686 11.4483 22.768C11.6493 22.5675 11.8879 22.4086 12.1505 22.3006C12.4131 22.1926 12.6944 22.1376 12.9783 22.1388H23.7922C24.3646 22.1399 24.9132 22.3675 25.3184 22.7718C25.7235 23.1762 25.9522 23.7244 25.9545 24.2968C25.9548 24.5805 25.899 24.8615 25.7904 25.1236C25.6817 25.3857 25.5223 25.6238 25.3214 25.8241C25.1205 26.0245 24.8819 26.1831 24.6195 26.291C24.3571 26.3988 24.0759 26.4538 23.7922 26.4526ZM23.7922 19.034H12.9805C12.4081 19.0334 11.8592 18.8063 11.4537 18.4024C11.0481 17.9985 10.8189 17.4505 10.816 16.8781C10.8157 16.5944 10.8715 16.3134 10.9801 16.0513C11.0888 15.7892 11.2482 15.5511 11.4491 15.3508C11.65 15.1504 11.8886 14.9918 12.151 14.8839C12.4134 14.7761 12.6946 14.7211 12.9783 14.7223H23.7922C24.3642 14.7234 24.9125 14.9507 25.3176 15.3546C25.7227 15.7584 25.9516 16.3061 25.9545 16.8781C25.9548 17.1619 25.899 17.4429 25.7904 17.705C25.6817 17.9671 25.5223 18.2051 25.3214 18.4055C25.1205 18.6058 24.8819 18.7644 24.6195 18.8723C24.3571 18.9802 24.0759 19.0351 23.7922 19.034ZM42.7158 37.234C42.7178 37.7296 42.619 38.2205 42.4253 38.6768C42.2316 39.1331 41.9471 39.5452 41.5892 39.8881C40.8685 40.5724 39.9126 40.9539 38.9188 40.9539C37.9249 40.9539 36.969 40.5724 36.2483 39.8881C35.8968 39.5376 35.6183 39.1207 35.429 38.6618C35.2397 38.2029 35.1433 37.7109 35.1455 37.2145C35.1363 36.4288 35.3878 35.6623 35.8605 35.0348C36.3935 34.3263 37.1583 33.8215 38.0228 33.6113H38.5645C38.6637 33.5892 38.7665 33.5892 38.8657 33.6113H39.299C39.9555 33.6871 40.5817 33.932 41.1147 34.3241C41.6498 34.7163 42.068 35.245 42.3258 35.856C42.5403 36.3218 42.6508 36.831 42.6508 37.3423L42.7158 37.234Z" fill="#DC042A"/>
<path d="M38.9133 33.4402C38.8135 33.4177 38.7099 33.4177 38.61 33.4402H38.9133Z" fill="black"/>
</svg>
